<svg width="143" height="32" viewBox="0 0 143 32" fill="none" xmlns="http://www.w3.org/2000/svg">
<path d="M136.442 25.6914C135.77 25.6914 135.063 25.6133 134.321 25.457L134.309 30.2383C134.309 30.6914 134.157 31.0664 133.852 31.3633C133.548 31.6602 133.161 31.8086 132.692 31.8086C132.223 31.8086 131.837 31.6602 131.532 31.3633C131.227 31.0664 131.075 30.6914 131.075 30.2383C131.075 29.8711 131.083 28.4141 131.098 25.8672C131.114 23.9766 131.114 22.4336 131.098 21.2383C131.075 19.5508 131.02 18.0977 130.934 16.8789C130.817 15.1992 130.759 14.4297 130.759 14.5703C130.759 13.9219 130.903 13.3672 131.192 12.9062C131.528 12.3828 131.981 12.1211 132.552 12.1211C132.989 12.1211 133.356 12.2695 133.653 12.5664C133.95 12.8633 134.098 13.2188 134.098 13.6328L134.087 13.75C134.61 13.4531 135.134 13.2344 135.657 13.0938C136.188 12.9453 136.72 12.8711 137.251 12.8711C139.048 12.8711 140.36 13.6328 141.188 15.1562C141.805 16.3047 142.114 17.793 142.114 19.6211C142.114 21.332 141.626 22.75 140.649 23.875C139.602 25.0859 138.2 25.6914 136.442 25.6914ZM137.251 16C136.759 16 136.259 16.1172 135.751 16.3516C135.243 16.5781 134.731 16.9219 134.216 17.3828C134.309 18.9922 134.356 20.6055 134.356 22.2227C135.052 22.4492 135.747 22.5625 136.442 22.5625C137.247 22.5625 137.864 22.2773 138.294 21.707C138.684 21.1914 138.88 20.4961 138.88 19.6211C138.88 18.5664 138.833 17.8359 138.739 17.4297C138.512 16.4766 138.016 16 137.251 16Z" fill="#96852D"/>
<path d="M128.605 25.7734C128.246 25.7734 127.676 25.3828 126.895 24.6016C126.176 24.9453 125.543 25.2031 124.996 25.375C124.449 25.5547 123.984 25.6445 123.602 25.6445C121.719 25.6445 120.305 25.1406 119.359 24.1328C118.422 23.125 117.953 21.6172 117.953 19.6094C117.953 17.7266 118.648 16.1172 120.039 14.7812C121.43 13.4375 123.094 12.7656 125.031 12.7656C125.773 12.7656 126.633 12.9766 127.609 13.3984C128.789 13.9062 129.379 14.4961 129.379 15.168C129.379 15.4492 129.289 15.6953 129.109 15.9062C129.031 16.2188 128.969 16.6133 128.922 17.0898C128.883 17.5586 128.863 18.1094 128.863 18.7422C128.863 20.2344 128.969 21.3086 129.18 21.9648C129.203 22.0352 129.383 22.4414 129.719 23.1836C130.023 23.8555 130.176 24.2383 130.176 24.332C130.176 24.7461 130.016 25.0898 129.695 25.3633C129.383 25.6367 129.02 25.7734 128.605 25.7734ZM125.699 17.7344C125.699 17.4844 125.715 17.1992 125.746 16.8789C125.785 16.5508 125.84 16.1875 125.91 15.7891C125.754 15.7109 125.613 15.6562 125.488 15.625C125.371 15.5859 125.27 15.5664 125.184 15.5664C124.121 15.5664 123.191 15.9844 122.395 16.8203C121.598 17.6484 121.199 18.6094 121.199 19.7031C121.199 20.75 121.387 21.5391 121.762 22.0703C122.137 22.5938 122.699 22.8555 123.449 22.8555C123.934 22.8555 124.391 22.7773 124.82 22.6211C125.258 22.457 125.668 22.2188 126.051 21.9062C125.816 20.0469 125.699 18.6562 125.699 17.7344Z" fill="#96852D"/>
<path d="M117.851 14.6758C117.03 17.7383 116.206 20.5195 115.378 23.0195C115.144 23.7227 114.761 24.4453 114.23 25.1875C113.855 25.7031 113.355 25.957 112.73 25.9492C111.745 25.9336 110.972 24.9844 110.409 23.1016C110.198 22.3828 109.948 21.043 109.659 19.082C109.495 19.4258 109.394 19.6562 109.355 19.7734C108.948 20.7422 108.355 22.2461 107.573 24.2852C107.456 24.6133 107.28 24.875 107.046 25.0703C106.718 25.5938 106.23 25.8672 105.581 25.8906C105.214 25.9062 104.827 25.5781 104.421 24.9062C103.991 24.2266 103.644 23.3516 103.378 22.2812C103.136 21.3125 102.761 19.2031 102.253 15.9531C102.144 15.25 102.089 14.6992 102.089 14.3008C102.089 13.8711 102.249 13.5156 102.57 13.2344C102.898 12.9453 103.288 12.8008 103.741 12.8008C104.585 12.8008 105.105 13.2188 105.3 14.0547C105.402 14.4922 105.488 15.0312 105.558 15.6719C105.652 16.5938 105.71 17.1367 105.734 17.3008C105.835 17.9102 105.991 18.9062 106.202 20.2891C106.78 18.7031 107.445 16.7305 108.195 14.3711C108.515 13.3555 109.116 12.8477 109.999 12.8477C110.866 12.8477 111.437 13.4141 111.71 14.5469C111.905 15.3438 112.113 16.3789 112.331 17.6523C112.652 19.5039 112.847 20.6055 112.917 20.957C112.988 20.7148 113.601 18.3398 114.757 13.832C114.929 13.1602 115.417 12.8242 116.222 12.8242C116.667 12.8242 117.058 12.9688 117.394 13.2578C117.738 13.5469 117.909 13.9062 117.909 14.3359C117.909 14.4141 117.89 14.5273 117.851 14.6758Z" fill="#96852D"/>
<path d="M100.217 16.4219C99.4437 16.4219 98.9789 16.0977 98.8227 15.4492C98.5102 15.3945 98.1898 15.3672 97.8617 15.3672C95.9789 15.3672 95.0375 15.625 95.0375 16.1406C95.0375 16.4453 95.6039 16.8555 96.7367 17.3711C98.2836 18.082 99.3305 18.6367 99.8773 19.0352C101.01 19.8555 101.577 20.7812 101.577 21.8125C101.577 23.1562 100.952 24.1758 99.7016 24.8711C98.6937 25.4258 97.4555 25.7031 95.9867 25.7031C94.9477 25.7031 93.9984 25.543 93.1391 25.2227C91.9672 24.7852 91.3812 24.1406 91.3812 23.2891C91.3812 22.5078 91.8461 22.1172 92.7758 22.1172C93.1352 22.1172 93.6547 22.2305 94.3344 22.457C95.0141 22.6836 95.5375 22.7969 95.9047 22.7969C97.4906 22.7969 98.2875 22.4766 98.2953 21.8359C98.2953 21.4375 97.7445 20.9961 96.643 20.5117C95.0336 19.8008 94.0023 19.2891 93.5492 18.9766C92.4477 18.2031 91.8969 17.2617 91.8969 16.1523C91.8969 14.582 92.7289 13.5234 94.393 12.9766C95.3695 12.6562 96.8539 12.4961 98.8461 12.4961C99.6273 12.4961 100.205 12.5977 100.58 12.8008C101.096 13.0742 101.354 13.5781 101.354 14.3125C101.354 15.7188 100.975 16.4219 100.217 16.4219Z" fill="#96852D"/>
<path d="M89.4391 25.832C88.4781 25.832 87.943 25.3594 87.8336 24.4141C87.7242 23.6094 87.6148 22.8008 87.5055 21.9883C87.3883 21.1289 87.3297 20.3203 87.3297 19.5625C87.3297 19.3594 87.3414 19.0117 87.3648 18.5195C87.3961 18.0273 87.4117 17.6797 87.4117 17.4766C87.4117 17.4219 87.4195 17.2852 87.4352 17.0664C87.4508 16.8398 87.4586 16.6562 87.4586 16.5156C87.4586 15.8672 87.2906 15.543 86.9547 15.543C86.2359 15.543 85.5289 15.9648 84.8336 16.8086C84.1461 17.6445 83.607 18.707 83.2164 19.9961C83.2008 20.2539 83.1656 20.5977 83.1109 21.0273C83.0641 21.3789 83.0406 21.7227 83.0406 22.0586C83.0406 22.2773 83.0641 22.6094 83.1109 23.0547C83.1656 23.4922 83.193 23.8203 83.193 24.0391C83.193 24.4844 83.0367 24.8516 82.7242 25.1406C82.4195 25.4375 82.0328 25.5859 81.5641 25.5859C81.0953 25.5859 80.7086 25.4375 80.4039 25.1406C80.0992 24.8516 79.9469 24.4844 79.9469 24.0391C79.9469 23.8203 79.9234 23.4922 79.8766 23.0547C79.8297 22.6094 79.8063 22.2773 79.8063 22.0586C79.8063 21.3086 79.8609 20.2656 79.9703 18.9297C80.0797 17.5938 80.1344 16.5508 80.1344 15.8008C80.1344 15.5664 80.1188 15.2188 80.0875 14.7578C80.0641 14.2891 80.0523 13.9414 80.0523 13.7148C80.0523 13.2773 80.2086 12.918 80.5211 12.6367C80.8414 12.3477 81.232 12.2031 81.693 12.2031C82.7164 12.2031 83.2633 12.8164 83.3336 14.043L83.3453 14.1719C84.4859 13.0234 85.6891 12.4492 86.9547 12.4492C88.4313 12.4492 89.4508 13.0664 90.0133 14.3008C90.3883 15.1289 90.5758 16.3672 90.5758 18.0156V18.8477C90.568 19.207 90.5641 19.4609 90.5641 19.6094C90.5641 20.2188 90.6461 21.0039 90.8102 21.9648C90.982 22.9258 91.068 23.707 91.068 24.3086C91.068 24.7461 90.9117 25.1094 90.5992 25.3984C90.2867 25.6875 89.9 25.832 89.4391 25.832Z" fill="#BB9F34"/>
<path d="M76.95 10.9141C76.45 10.9141 76.0164 10.7461 75.6492 10.4102C75.282 10.0742 75.0984 9.66406 75.0984 9.17969C75.0984 8.69531 75.282 8.28516 75.6492 7.94922C76.0164 7.61328 76.45 7.44531 76.95 7.44531C77.45 7.44531 77.8797 7.61328 78.2391 7.94922C78.6062 8.28516 78.7898 8.69531 78.7898 9.17969C78.7898 9.66406 78.6062 10.0742 78.2391 10.4102C77.8797 10.7461 77.45 10.9141 76.95 10.9141ZM77.9461 19.5039C77.9461 19.9492 77.9578 20.6641 77.9812 21.6484C78.0125 22.6328 78.0281 23.3477 78.0281 23.793C78.0281 24.2461 77.8758 24.6211 77.5711 24.918C77.2664 25.207 76.8797 25.3516 76.4109 25.3516C75.9422 25.3516 75.5555 25.207 75.2508 24.918C74.9461 24.6211 74.7937 24.2461 74.7937 23.793C74.7937 23.3477 74.7781 22.6328 74.7469 21.6484C74.7234 20.6641 74.7117 19.9492 74.7117 19.5039C74.7117 18.8086 74.7508 17.9375 74.8289 16.8906C74.907 15.8438 74.9461 14.9727 74.9461 14.2773C74.9461 13.8242 75.0984 13.4531 75.4031 13.1641C75.7078 12.8672 76.0945 12.7188 76.5633 12.7188C77.032 12.7188 77.4187 12.8672 77.7234 13.1641C78.0281 13.4531 78.1805 13.8242 78.1805 14.2773C78.1805 14.9727 78.1414 15.8438 78.0633 16.8906C77.9852 17.9375 77.9461 18.8086 77.9461 19.5039Z" fill="#BB9F34"/>
<path d="M67.2734 25.6914C65.8281 25.6914 64.5859 25.1953 63.5469 24.2031C62.4062 23.1172 61.8086 21.668 61.7539 19.8555C61.6992 18.1289 62.1719 16.5898 63.1719 15.2383C64.3594 13.6445 66.0117 12.8477 68.1289 12.8477C69.6914 12.8477 70.9336 13.4727 71.8555 14.7227C72.6836 15.8477 73.0977 17.2422 73.0977 18.9062C73.0977 20.7188 72.6133 22.2656 71.6445 23.5469C70.5586 24.9766 69.1016 25.6914 67.2734 25.6914ZM67.9766 15.9414C67.0156 15.9336 66.2578 16.3711 65.7031 17.2539C65.2344 17.9961 65 18.8633 65 19.8555C65 20.793 65.2656 21.5117 65.7969 22.0117C66.2187 22.4102 66.7109 22.6094 67.2734 22.6094C67.9531 22.6094 68.543 22.3789 69.043 21.918C69.6133 21.3789 69.918 20.6484 69.957 19.7266C70.0586 17.2109 69.3984 15.9492 67.9766 15.9414Z" fill="#BB9F34"/>
<path d="M56.3078 25.7383C54.5891 25.7383 53.1477 25.25 51.9836 24.2734C50.757 23.2422 50.1438 21.8828 50.1438 20.1953C50.1438 18.6406 50.6945 17.0352 51.7961 15.3789C53.0461 13.4883 54.4992 12.543 56.1555 12.543C56.968 12.543 57.9172 12.7617 59.0031 13.1992C60.3234 13.7383 60.9836 14.3594 60.9836 15.0625C60.9836 15.4453 60.8508 15.7852 60.5852 16.082C60.3039 16.4023 59.9406 16.5625 59.4953 16.5625C59.1594 16.5625 58.7531 16.3828 58.2766 16.0234C57.8078 15.6562 57.1008 15.4727 56.1555 15.4727C55.5539 15.4727 54.9016 16.0625 54.1984 17.2422C53.5266 18.3828 53.1906 19.3672 53.1906 20.1953C53.1906 21.0156 53.4875 21.6602 54.0813 22.1289C54.6438 22.5742 55.3859 22.7969 56.3078 22.7969C56.8313 22.7969 57.4719 22.5977 58.2297 22.1992C58.9875 21.8008 59.468 21.6016 59.6711 21.6016C60.093 21.6016 60.4523 21.7539 60.7492 22.0586C61.0539 22.3633 61.2063 22.7109 61.2063 23.1016C61.2063 23.7109 60.5422 24.3203 59.2141 24.9297C58.0266 25.4688 57.0578 25.7383 56.3078 25.7383Z" fill="#BB9F34"/>
<path d="M44.1937 25.5391C42.3266 25.5391 40.7992 25.0938 39.6117 24.2031C38.2992 23.2188 37.643 21.832 37.643 20.043C37.643 18.0664 38.1625 16.3945 39.2016 15.0273C40.3578 13.5117 41.9164 12.7539 43.8773 12.7539C45.2367 12.7539 46.3656 12.9727 47.2641 13.4102C48.4437 13.9883 49.0336 14.8867 49.0336 16.1055C49.0336 16.9648 48.5531 17.7266 47.5922 18.3906C47.1547 18.6953 46.2758 19.1406 44.9555 19.7266L41.0062 21.4727C41.3812 21.8789 41.8344 22.1836 42.3656 22.3867C42.8969 22.5898 43.5062 22.6914 44.1937 22.6914C45.2406 22.6914 46.1273 22.4766 46.8539 22.0469C47.5023 21.6641 48.0219 21.4727 48.4125 21.4727C49.225 21.4727 49.6312 21.8672 49.6312 22.6562C49.6312 23.5469 48.9789 24.2734 47.6742 24.8359C46.5805 25.3047 45.4203 25.5391 44.1937 25.5391ZM43.8773 15.5898C43.1508 15.5898 42.5297 15.832 42.0141 16.3164C41.4984 16.8008 41.0844 17.5273 40.7719 18.4961C41.6547 18.1133 42.5336 17.7344 43.4086 17.3594C44.4633 16.8828 45.3031 16.4414 45.9281 16.0352C45.4047 15.7383 44.7211 15.5898 43.8773 15.5898Z" fill="#BB9F34"/>
<path d="M37.2008 18.0156C36.8727 19.8516 36.6773 21.7891 36.6148 23.8281C36.5367 26.3516 36.1148 28.1836 35.3492 29.3242C34.3258 30.8477 32.5133 31.6094 29.9117 31.6094C26.8727 31.6094 25.3531 31.0078 25.3531 29.8047C25.3531 29.375 25.4898 29.0273 25.7633 28.7617C26.0367 28.4961 26.3961 28.3633 26.8414 28.3633C27.193 28.3633 27.6969 28.4297 28.3531 28.5625C29.0094 28.6953 29.5914 28.7617 30.0992 28.7617C31.2633 28.7617 32.1227 28.4062 32.6773 27.6953C33.2086 27 33.5211 25.8945 33.6148 24.3789C33.2164 24.7852 32.7672 25.0898 32.2672 25.293C31.7672 25.4961 31.2203 25.5977 30.6266 25.5977C29.0719 25.5977 27.8062 25.0938 26.8297 24.0859C25.8609 23.0703 25.3766 21.7734 25.3766 20.1953C25.3766 18.0703 26.025 16.3516 27.3219 15.0391C28.6656 13.6797 30.482 13 32.7711 13C33.5055 13 34.1383 13.0898 34.6695 13.2695C35.2008 13.4492 35.6305 13.7227 35.9586 14.0898C36.9508 14.207 37.4469 14.793 37.4469 15.8477C37.4469 16.3711 37.3648 17.0938 37.2008 18.0156ZM32.6539 15.6719C31.3336 15.6719 30.3062 16.1055 29.5719 16.9727C28.9156 17.7617 28.5875 18.7852 28.5875 20.043C28.5875 20.9727 28.7633 21.6719 29.1148 22.1406C29.4664 22.6094 29.9937 22.8438 30.6969 22.8438C31.3375 22.8438 31.982 22.4727 32.6305 21.7305C33.2398 21.0273 33.5875 20.332 33.6734 19.6445C33.8219 18.8945 33.9937 17.7266 34.1891 16.1406C33.9234 15.9844 33.6617 15.8672 33.4039 15.7891C33.1461 15.7109 32.8961 15.6719 32.6539 15.6719Z" fill="#BB9F34"/>
<path d="M19.3328 25.6914C17.8875 25.6914 16.6453 25.1953 15.6062 24.2031C14.4656 23.1172 13.868 21.668 13.8133 19.8555C13.7586 18.1289 14.2312 16.5898 15.2312 15.2383C16.4187 13.6445 18.0711 12.8477 20.1883 12.8477C21.7508 12.8477 22.993 13.4727 23.9148 14.7227C24.743 15.8477 25.157 17.2422 25.157 18.9062C25.157 20.7188 24.6727 22.2656 23.7039 23.5469C22.618 24.9766 21.1609 25.6914 19.3328 25.6914ZM20.0359 15.9414C19.075 15.9336 18.3172 16.3711 17.7625 17.2539C17.2937 17.9961 17.0594 18.8633 17.0594 19.8555C17.0594 20.793 17.325 21.5117 17.8562 22.0117C18.2781 22.4102 18.7703 22.6094 19.3328 22.6094C20.0125 22.6094 20.6023 22.3789 21.1023 21.918C21.6727 21.3789 21.9773 20.6484 22.0164 19.7266C22.118 17.2109 21.4578 15.9492 20.0359 15.9414Z" fill="#BB9F34"/>
<path d="M9.77344 13.2227C9.875 10.5586 9.99609 8.71875 10.1367 7.70312C10.2695 6.78125 10.7773 6.32031 11.6602 6.32031C12.1211 6.32031 12.4922 6.46875 12.7734 6.76562C13.0547 7.0625 13.1953 7.42578 13.1953 7.85547C13.1953 8.98828 13.1055 10.6758 12.9258 12.918C12.7539 15.1602 12.668 16.8477 12.668 17.9805C12.668 20.7461 12.7578 22.5977 12.9375 23.5352C12.9609 23.6602 12.9727 23.7734 12.9727 23.875C12.9727 24.3047 12.8164 24.6602 12.5039 24.9414C12.1914 25.2148 11.8281 25.3516 11.4141 25.3516C10.8359 25.3516 10.4062 25.0938 10.125 24.5781C9.59375 24.8984 9.04297 25.1367 8.47266 25.293C7.90234 25.457 7.3125 25.5391 6.70312 25.5391C4.95312 25.5391 3.5 24.9805 2.34375 23.8633C1.16406 22.7227 0.574219 21.2695 0.574219 19.5039C0.574219 17.4023 1.16797 15.707 2.35547 14.418C3.54297 13.1211 5.09375 12.4727 7.00781 12.4727C7.59375 12.4727 8.11719 12.5352 8.57812 12.6602C9.03906 12.7852 9.4375 12.9727 9.77344 13.2227ZM9.53906 16.9141C9.28125 16.4219 8.94531 16.0547 8.53125 15.8125C8.11719 15.5703 7.625 15.4492 7.05469 15.4492C5.89844 15.4492 5.03125 15.7852 4.45312 16.457C3.875 17.1211 3.58594 18.1211 3.58594 19.457C3.58594 20.3008 3.89844 21.0234 4.52344 21.625C5.14844 22.2266 5.875 22.5273 6.70312 22.5273C7.30469 22.5273 7.76172 22.457 8.07422 22.3164C8.28516 22.2227 8.64453 21.9727 9.15234 21.5664C9.28516 21.457 9.41406 21.3359 9.53906 21.2031C9.52344 20.8281 9.52344 19.3984 9.53906 16.9141Z" fill="#BB9F34"/>
</svg>
