<svg width="20" height="20" viewBox="0 0 20 20" fill="none" xmlns="http://www.w3.org/2000/svg">
<path d="M10 3.29278C10.6709 3.29278 11.2738 3.66547 11.5738 4.26531L16.5217 14.161C16.7963 14.7102 16.7675 15.35 16.4449 15.8727C16.1219 16.3953 15.5624 16.7072 14.9484 16.7072H5.05215C4.4381 16.7072 3.87862 16.3953 3.55562 15.8727C3.23262 15.35 3.20378 14.7102 3.47842 14.161L8.42632 4.26531C8.72624 3.66547 9.3292 3.29278 10 3.29278ZM10 2.08333C8.87532 2.08333 7.84776 2.71867 7.34463 3.72448L2.39673 13.6201C1.93664 14.5403 1.98589 15.6335 2.52673 16.5085C3.06757 17.3838 4.02326 17.9167 5.05215 17.9167H14.9479C15.9768 17.9167 16.9325 17.3838 17.4733 16.5085C18.0142 15.6331 18.0634 14.5403 17.6033 13.6201L12.6555 3.72448C12.1528 2.71867 11.1248 2.08333 10 2.08333Z" fill="#808080" stroke="#808080"/>
</svg>
