<svg width="123" height="32" viewBox="0 0 123 32" fill="none" xmlns="http://www.w3.org/2000/svg">
<path d="M47.9318 25.1705C47 25.1705 46.142 24.9261 45.358 24.4375C44.5795 23.9489 43.9545 23.2074 43.483 22.2131C43.017 21.2187 42.7841 19.9659 42.7841 18.4545C42.7841 16.875 43.0284 15.5909 43.517 14.6023C44.0114 13.6136 44.6477 12.8892 45.4261 12.429C46.2102 11.9688 47.0341 11.7386 47.8977 11.7386C48.5455 11.7386 49.1136 11.8523 49.6023 12.0795C50.0909 12.3011 50.5 12.5994 50.8295 12.9744C51.1591 13.3437 51.4091 13.75 51.5795 14.1932H51.6477V7.54545H56.3523V25H51.6818V22.8523H51.5795C51.3977 23.2955 51.1364 23.6932 50.7955 24.0455C50.4602 24.392 50.0511 24.6676 49.5682 24.8722C49.0909 25.071 48.5455 25.1705 47.9318 25.1705ZM49.6705 21.5568C50.1023 21.5568 50.4716 21.4318 50.7784 21.1818C51.0909 20.9261 51.3295 20.5682 51.4943 20.108C51.6648 19.642 51.75 19.0909 51.75 18.4545C51.75 17.8068 51.6648 17.2528 51.4943 16.7926C51.3295 16.3267 51.0909 15.9716 50.7784 15.7273C50.4716 15.4773 50.1023 15.3523 49.6705 15.3523C49.2386 15.3523 48.8693 15.4773 48.5625 15.7273C48.2614 15.9716 48.0284 16.3267 47.8636 16.7926C47.7045 17.2528 47.625 17.8068 47.625 18.4545C47.625 19.1023 47.7045 19.6591 47.8636 20.125C48.0284 20.5852 48.2614 20.9403 48.5625 21.1903C48.8693 21.4347 49.2386 21.5568 49.6705 21.5568ZM64.1347 25.2386C62.7369 25.2386 61.5324 24.9716 60.521 24.4375C59.5153 23.8977 58.7398 23.125 58.1943 22.1193C57.6545 21.108 57.3847 19.8977 57.3847 18.4886C57.3847 17.1364 57.6574 15.9545 58.2028 14.9432C58.7483 13.9318 59.5182 13.1449 60.5125 12.5824C61.5068 12.0199 62.6801 11.7386 64.0324 11.7386C65.021 11.7386 65.9159 11.892 66.717 12.1989C67.5182 12.5057 68.2028 12.9517 68.771 13.5369C69.3392 14.1165 69.7767 14.821 70.0835 15.6506C70.3903 16.4801 70.5437 17.4148 70.5437 18.4545V19.5455H58.8506V16.9545H66.2142C66.2085 16.5795 66.1119 16.25 65.9244 15.9659C65.7426 15.6761 65.4955 15.4517 65.183 15.2926C64.8761 15.1278 64.5267 15.0455 64.1347 15.0455C63.754 15.0455 63.4045 15.1278 63.0864 15.2926C62.7682 15.4517 62.5125 15.6733 62.3193 15.9574C62.1318 16.2415 62.0324 16.5739 62.021 16.9545V19.75C62.021 20.1705 62.1091 20.5455 62.2852 20.875C62.4614 21.2045 62.7142 21.4631 63.0437 21.6506C63.3733 21.8381 63.771 21.9318 64.2369 21.9318C64.5608 21.9318 64.8563 21.8864 65.1233 21.7955C65.396 21.7045 65.629 21.5739 65.8222 21.4034C66.0153 21.2273 66.1574 21.017 66.2483 20.7727H70.5437C70.396 21.6818 70.0466 22.4716 69.4955 23.142C68.9443 23.8068 68.2142 24.3239 67.3051 24.6932C66.4017 25.0568 65.3449 25.2386 64.1347 25.2386ZM79.5044 11.9091V15.3182H70.743V11.9091H79.5044ZM72.4135 25V11.5341C72.4135 10.4545 72.6067 9.55966 72.993 8.84943C73.3794 8.1392 73.9249 7.60795 74.6294 7.25568C75.3339 6.90341 76.1635 6.72727 77.118 6.72727C77.7146 6.72727 78.2942 6.77273 78.8567 6.86364C79.4249 6.95455 79.8453 7.03409 80.118 7.10227L79.4362 10.4773C79.2658 10.4261 79.0669 10.3864 78.8396 10.358C78.6124 10.3239 78.4135 10.3068 78.243 10.3068C77.7999 10.3068 77.5016 10.4006 77.3482 10.5881C77.1947 10.7756 77.118 11.0227 77.118 11.3295V25H72.4135ZM89.0084 19.2727V11.9091H93.7129V25H89.247V22.5114H89.1107C88.8266 23.3466 88.3294 24 87.6192 24.4716C86.9089 24.9375 86.0652 25.1705 85.0879 25.1705C84.1732 25.1705 83.372 24.9602 82.6845 24.5398C82.0027 24.1193 81.4714 23.5398 81.0908 22.8011C80.7158 22.0625 80.5254 21.2159 80.5197 20.2614V11.9091H85.2243V19.2727C85.23 19.9205 85.3947 20.429 85.7186 20.7983C86.0482 21.1676 86.5084 21.3523 87.0993 21.3523C87.4913 21.3523 87.8294 21.2699 88.1135 21.1051C88.4033 20.9347 88.6249 20.696 88.7783 20.3892C88.9374 20.0767 89.0141 19.7045 89.0084 19.2727ZM107.272 16.1705H102.942C102.919 15.9034 102.826 15.6733 102.661 15.4801C102.496 15.2869 102.283 15.1392 102.022 15.0369C101.766 14.929 101.482 14.875 101.169 14.875C100.766 14.875 100.419 14.9489 100.13 15.0966C99.8398 15.2443 99.6977 15.4545 99.7034 15.7273C99.6977 15.9205 99.7801 16.0994 99.9506 16.2642C100.127 16.429 100.465 16.5568 100.965 16.6477L103.624 17.125C104.965 17.3693 105.962 17.7812 106.615 18.3608C107.274 18.9347 107.607 19.7045 107.612 20.6705C107.607 21.6023 107.328 22.4119 106.777 23.0994C106.232 23.7812 105.485 24.3097 104.536 24.6847C103.593 25.054 102.516 25.2386 101.306 25.2386C99.3057 25.2386 97.7403 24.8295 96.6097 24.0114C95.4847 23.1932 94.8568 22.1136 94.7261 20.7727H99.3966C99.4591 21.1875 99.6636 21.5085 100.01 21.7358C100.362 21.9574 100.806 22.0682 101.34 22.0682C101.772 22.0682 102.127 21.9943 102.405 21.8466C102.689 21.6989 102.834 21.4886 102.84 21.2159C102.834 20.9659 102.709 20.767 102.465 20.6193C102.226 20.4716 101.851 20.3523 101.34 20.2614L99.0216 19.8523C97.6864 19.6193 96.6864 19.1761 96.0216 18.5227C95.3568 17.8693 95.0273 17.0284 95.033 16C95.0273 15.0909 95.2659 14.321 95.7489 13.6903C96.2375 13.054 96.9335 12.571 97.8369 12.2415C98.746 11.9062 99.8227 11.7386 101.067 11.7386C102.959 11.7386 104.451 12.1307 105.541 12.9148C106.638 13.6989 107.215 14.7841 107.272 16.1705ZM114.888 25.2386C113.49 25.2386 112.286 24.9716 111.274 24.4375C110.268 23.8977 109.493 23.125 108.947 22.1193C108.408 21.108 108.138 19.8977 108.138 18.4886C108.138 17.1364 108.411 15.9545 108.956 14.9432C109.501 13.9318 110.271 13.1449 111.266 12.5824C112.26 12.0199 113.433 11.7386 114.786 11.7386C115.774 11.7386 116.669 11.892 117.47 12.1989C118.271 12.5057 118.956 12.9517 119.524 13.5369C120.092 14.1165 120.53 14.821 120.837 15.6506C121.143 16.4801 121.297 17.4148 121.297 18.4545V19.5455H109.604V16.9545H116.967C116.962 16.5795 116.865 16.25 116.678 15.9659C116.496 15.6761 116.249 15.4517 115.936 15.2926C115.629 15.1278 115.28 15.0455 114.888 15.0455C114.507 15.0455 114.158 15.1278 113.839 15.2926C113.521 15.4517 113.266 15.6733 113.072 15.9574C112.885 16.2415 112.786 16.5739 112.774 16.9545V19.75C112.774 20.1705 112.862 20.5455 113.038 20.875C113.214 21.2045 113.467 21.4631 113.797 21.6506C114.126 21.8381 114.524 21.9318 114.99 21.9318C115.314 21.9318 115.609 21.8864 115.876 21.7955C116.149 21.7045 116.382 21.5739 116.575 21.4034C116.768 21.2273 116.911 21.017 117.001 20.7727H121.297C121.149 21.6818 120.8 22.4716 120.249 23.142C119.697 23.8068 118.967 24.3239 118.058 24.6932C117.155 25.0568 116.098 25.2386 114.888 25.2386Z" fill="#21201C"/>
<g clip-path="url(#clip0_242_435)">
<rect width="32" height="32" rx="16" fill="#8D8D86"/>
<line x1="0.353553" y1="-0.353553" x2="32.3536" y2="31.6464" stroke="#F9F9F8"/>
<line y1="-0.5" x2="45.2548" y2="-0.5" transform="matrix(-0.707107 0.707107 0.707107 0.707107 32 0)" stroke="#F9F9F8"/>
</g>
<rect x="24" width="16" height="16" rx="8" fill="#F9F9F8"/>
<path fill-rule="evenodd" clip-rule="evenodd" d="M32 0C36.4121 0 40 3.58788 40 8C40 12.4121 36.4121 16 32 16C27.5879 16 24 12.4121 24 8C24 3.58788 27.5879 0 32 0ZM36.8808 11.1677C37.0586 10.9576 37.3818 10.9253 37.5919 11.103C37.802 11.2808 37.8182 11.604 37.6404 11.8141C35.3939 14.4485 34.2465 12.1051 33.5515 9.90707C30.3838 15.0303 26.0364 12.3475 26.2465 7.74141C26.4404 3.44242 31.4505 -0.0969697 33.7939 7.33737C34.3919 6.07677 34.9091 4.78384 35.4424 3.49091C35.5394 3.24849 35.8303 3.11919 36.0889 3.23232C36.3475 3.32929 36.4606 3.6202 36.3636 3.87879C35.6848 5.51111 35.0384 7.1596 34.2141 8.72727C34.6828 10.2465 35.1354 13.204 36.8808 11.1677ZM33.1475 8.61414C31.0949 1.72929 27.4263 3.7495 27.2323 7.7899C27.0384 11.9758 30.5293 13.4788 33.1475 8.61414Z" fill="#F76B15"/>
<defs>
<clipPath id="clip0_242_435">
<rect width="32" height="32" rx="16" fill="white"/>
</clipPath>
</defs>
</svg>
