<svg width="149" height="32" viewBox="0 0 149 32" fill="none" xmlns="http://www.w3.org/2000/svg">
<path d="M131.768 16.1705H127.439C127.416 15.9034 127.322 15.6733 127.158 15.4801C126.993 15.2869 126.78 15.1392 126.518 15.0369C126.263 14.929 125.979 14.875 125.666 14.875C125.263 14.875 124.916 14.9489 124.626 15.0966C124.337 15.2443 124.195 15.4545 124.2 15.7273C124.195 15.9205 124.277 16.0994 124.447 16.2642C124.624 16.429 124.962 16.5568 125.462 16.6477L128.121 17.125C129.462 17.3693 130.459 17.7812 131.112 18.3608C131.771 18.9347 132.104 19.7045 132.109 20.6705C132.104 21.6023 131.825 22.4119 131.274 23.0994C130.729 23.7813 129.982 24.3097 129.033 24.6847C128.089 25.054 127.013 25.2386 125.803 25.2386C123.803 25.2386 122.237 24.8295 121.107 24.0114C119.982 23.1932 119.354 22.1136 119.223 20.7727H123.893C123.956 21.1875 124.161 21.5085 124.507 21.7358C124.859 21.9574 125.303 22.0682 125.837 22.0682C126.268 22.0682 126.624 21.9943 126.902 21.8466C127.186 21.6989 127.331 21.4886 127.337 21.2159C127.331 20.9659 127.206 20.767 126.962 20.6193C126.723 20.4716 126.348 20.3523 125.837 20.2614L123.518 19.8523C122.183 19.6193 121.183 19.1761 120.518 18.5227C119.854 17.8693 119.524 17.0284 119.53 16C119.524 15.0909 119.763 14.321 120.246 13.6903C120.734 13.054 121.43 12.571 122.334 12.2415C123.243 11.9062 124.32 11.7386 125.564 11.7386C127.456 11.7386 128.947 12.1307 130.038 12.9148C131.135 13.6989 131.712 14.7841 131.768 16.1705Z" fill="#82827C"/>
<path d="M118.823 11.9091V15.3182H110.198V11.9091H118.823ZM111.869 8.77273H116.573V20.7898C116.573 20.9716 116.605 21.125 116.667 21.25C116.73 21.3693 116.826 21.4602 116.957 21.5227C117.088 21.5795 117.255 21.608 117.46 21.608C117.602 21.608 117.767 21.5909 117.954 21.5568C118.147 21.5227 118.289 21.4943 118.38 21.4716L119.062 24.7784C118.852 24.8409 118.551 24.9176 118.159 25.0085C117.772 25.0994 117.312 25.1591 116.778 25.1875C115.698 25.2443 114.792 25.1335 114.059 24.8551C113.326 24.571 112.775 24.125 112.406 23.517C112.036 22.9091 111.858 22.1477 111.869 21.233V8.77273Z" fill="#82827C"/>
<path d="M101.006 17.6364V25H96.301V11.9091H100.767V14.3977H100.903C101.187 13.5682 101.687 12.9176 102.403 12.446C103.125 11.9744 103.966 11.7386 104.926 11.7386C105.852 11.7386 106.656 11.9517 107.338 12.3778C108.025 12.7983 108.557 13.3778 108.932 14.1165C109.312 14.8551 109.5 15.6989 109.494 16.6477V25H104.79V17.6364C104.795 16.9886 104.631 16.4801 104.295 16.1108C103.966 15.7415 103.506 15.5568 102.915 15.5568C102.528 15.5568 102.19 15.642 101.9 15.8125C101.616 15.9773 101.398 16.2159 101.244 16.5284C101.091 16.8352 101.011 17.2045 101.006 17.6364Z" fill="#82827C"/>
<path d="M88.7722 25.2386C87.3744 25.2386 86.1699 24.9716 85.1585 24.4375C84.1528 23.8977 83.3773 23.125 82.8318 22.1193C82.292 21.108 82.0222 19.8977 82.0222 18.4886C82.0222 17.1364 82.2949 15.9545 82.8403 14.9432C83.3858 13.9318 84.1557 13.1449 85.15 12.5824C86.1443 12.0199 87.3176 11.7386 88.6699 11.7386C89.6585 11.7386 90.5534 11.892 91.3545 12.1989C92.1557 12.5057 92.8403 12.9517 93.4085 13.5369C93.9767 14.1165 94.4142 14.821 94.721 15.6506C95.0278 16.4801 95.1812 17.4148 95.1812 18.4545V19.5455H83.4881V16.9545H90.8517C90.846 16.5795 90.7494 16.25 90.5619 15.9659C90.3801 15.6761 90.1329 15.4517 89.8204 15.2926C89.5136 15.1278 89.1642 15.0455 88.7722 15.0455C88.3915 15.0455 88.042 15.1278 87.7239 15.2926C87.4057 15.4517 87.15 15.6733 86.9568 15.9574C86.7693 16.2415 86.6699 16.5739 86.6585 16.9545V19.75C86.6585 20.1705 86.7466 20.5455 86.9227 20.875C87.0989 21.2045 87.3517 21.4631 87.6812 21.6506C88.0108 21.8381 88.4085 21.9318 88.8744 21.9318C89.1983 21.9318 89.4937 21.8864 89.7608 21.7955C90.0335 21.7045 90.2665 21.5739 90.4597 21.4034C90.6528 21.2273 90.7949 21.017 90.8858 20.7727H95.1812C95.0335 21.6818 94.6841 22.4716 94.1329 23.142C93.5818 23.8068 92.8517 24.3239 91.9426 24.6932C91.0392 25.0568 89.9824 25.2386 88.7722 25.2386Z" fill="#82827C"/>
<path d="M81.5203 11.9091V15.3182H72.8953V11.9091H81.5203ZM74.5658 8.77273H79.2703V20.7898C79.2703 20.9716 79.3016 21.125 79.3641 21.25C79.4266 21.3693 79.5232 21.4602 79.6538 21.5227C79.7845 21.5795 79.9521 21.608 80.1567 21.608C80.2987 21.608 80.4635 21.5909 80.651 21.5568C80.8442 21.5227 80.9862 21.4943 81.0771 21.4716L81.759 24.7784C81.5487 24.8409 81.2476 24.9176 80.8556 25.0085C80.4692 25.0994 80.009 25.1591 79.4749 25.1875C78.3953 25.2443 77.4891 25.1335 76.7561 24.8551C76.0232 24.571 75.472 24.125 75.1027 23.517C74.7334 22.9091 74.5544 22.1477 74.5658 21.233V8.77273Z" fill="#82827C"/>
<path d="M63.7024 17.6364V25H58.9979V11.9091H63.4638V14.3977H63.6001C63.8842 13.5682 64.3842 12.9176 65.1001 12.446C65.8217 11.9744 66.6626 11.7386 67.6229 11.7386C68.549 11.7386 69.353 11.9517 70.0348 12.3778C70.7223 12.7983 71.2535 13.3778 71.6285 14.1165C72.0092 14.8551 72.1967 15.6989 72.191 16.6477V25H67.4865V17.6364C67.4922 16.9886 67.3274 16.4801 66.9922 16.1108C66.6626 15.7415 66.2024 15.5568 65.6115 15.5568C65.2251 15.5568 64.8871 15.642 64.5973 15.8125C64.3132 15.9773 64.0945 16.2159 63.941 16.5284C63.7876 16.8352 63.7081 17.2045 63.7024 17.6364Z" fill="#82827C"/>
<path d="M52.6963 25V11.9091H57.4008V25H52.6963ZM55.0486 10.5455C54.4122 10.5455 53.8667 10.3352 53.4122 9.91477C52.9577 9.49432 52.7304 8.98864 52.7304 8.39773C52.7304 7.80682 52.9577 7.30114 53.4122 6.88068C53.8667 6.46023 54.4122 6.25 55.0486 6.25C55.6906 6.25 56.2361 6.46023 56.6849 6.88068C57.1395 7.30114 57.3667 7.80682 57.3667 8.39773C57.3667 8.98864 57.1395 9.49432 56.6849 9.91477C56.2361 10.3352 55.6906 10.5455 55.0486 10.5455Z" fill="#82827C"/>
<path d="M43.09 25V11.9091H47.6582V14.3977H47.7946C48.0332 13.4773 48.4111 12.804 48.9281 12.3778C49.4508 11.9517 50.0616 11.7386 50.7605 11.7386C50.965 11.7386 51.1667 11.7557 51.3656 11.7898C51.5701 11.8182 51.7662 11.8608 51.9537 11.9176V15.9318C51.7207 15.8523 51.4338 15.7926 51.0929 15.7528C50.752 15.7131 50.4593 15.6932 50.215 15.6932C49.7548 15.6932 49.34 15.7983 48.9707 16.0085C48.6071 16.2131 48.3201 16.5028 48.1099 16.8778C47.8997 17.2472 47.7946 17.6818 47.7946 18.1818V25H43.09Z" fill="#21201C"/>
<path d="M33.3581 25.2045C32.5229 25.2045 31.7842 25.0682 31.1422 24.7955C30.5058 24.517 30.0058 24.0966 29.6422 23.5341C29.2786 22.9716 29.0967 22.2557 29.0967 21.3864C29.0967 20.6705 29.2189 20.0597 29.4632 19.554C29.7075 19.0426 30.0484 18.625 30.4859 18.3011C30.9234 17.9773 31.432 17.7301 32.0115 17.5597C32.5967 17.3892 33.2274 17.2784 33.9036 17.2273C34.6365 17.1705 35.2246 17.1023 35.6678 17.0227C36.1166 16.9375 36.4405 16.821 36.6394 16.6733C36.8382 16.5199 36.9376 16.3182 36.9376 16.0682V16.0341C36.9376 15.6932 36.807 15.4318 36.5456 15.25C36.2842 15.0682 35.949 14.9773 35.5399 14.9773C35.0911 14.9773 34.7246 15.0767 34.4405 15.2756C34.1621 15.4687 33.9945 15.767 33.9376 16.1705H29.6081C29.6649 15.375 29.9178 14.642 30.3666 13.9716C30.8212 13.2955 31.4831 12.7557 32.3524 12.3523C33.2217 11.9432 34.307 11.7386 35.6081 11.7386C36.5456 11.7386 37.3865 11.8494 38.1308 12.071C38.8752 12.2869 39.5087 12.5909 40.0314 12.983C40.5541 13.3693 40.9519 13.8239 41.2246 14.3466C41.503 14.8636 41.6422 15.4261 41.6422 16.0341V25H37.2445V23.1591H37.1422C36.8808 23.6477 36.5626 24.0426 36.1876 24.3438C35.8183 24.6449 35.395 24.8636 34.9178 25C34.4462 25.1364 33.9263 25.2045 33.3581 25.2045ZM34.8922 22.2386C35.2502 22.2386 35.5854 22.1648 35.8979 22.017C36.2161 21.8693 36.4746 21.6562 36.6734 21.3778C36.8723 21.0994 36.9717 20.7614 36.9717 20.3636V19.2727C36.8467 19.3239 36.7132 19.3722 36.5712 19.4176C36.4348 19.4631 36.2871 19.5057 36.128 19.5455C35.9746 19.5852 35.8098 19.6222 35.6337 19.6562C35.4632 19.6903 35.2842 19.7216 35.0967 19.75C34.7331 19.8068 34.4348 19.9006 34.2019 20.0312C33.9746 20.1562 33.8041 20.3125 33.6905 20.5C33.5825 20.6818 33.5286 20.8864 33.5286 21.1136C33.5286 21.4773 33.6564 21.7557 33.9121 21.9489C34.1678 22.142 34.4945 22.2386 34.8922 22.2386Z" fill="#21201C"/>
<path d="M22.1815 25.2386C20.7838 25.2386 19.5792 24.9716 18.5679 24.4375C17.5622 23.8977 16.7866 23.125 16.2412 22.1193C15.7014 21.108 15.4315 19.8977 15.4315 18.4886C15.4315 17.1364 15.7042 15.9545 16.2497 14.9432C16.7952 13.9318 17.565 13.1449 18.5594 12.5824C19.5537 12.0199 20.727 11.7386 22.0792 11.7386C23.0679 11.7386 23.9628 11.892 24.7639 12.1989C25.565 12.5057 26.2497 12.9517 26.8179 13.5369C27.3861 14.1165 27.8236 14.821 28.1304 15.6506C28.4372 16.4801 28.5906 17.4148 28.5906 18.4545V19.5455H16.8974V16.9545H24.2611C24.2554 16.5795 24.1588 16.25 23.9713 15.9659C23.7895 15.6761 23.5423 15.4517 23.2298 15.2926C22.923 15.1278 22.5736 15.0455 22.1815 15.0455C21.8008 15.0455 21.4514 15.1278 21.1332 15.2926C20.815 15.4517 20.5594 15.6733 20.3662 15.9574C20.1787 16.2415 20.0792 16.5739 20.0679 16.9545V19.75C20.0679 20.1705 20.156 20.5455 20.3321 20.875C20.5082 21.2045 20.7611 21.4631 21.0906 21.6506C21.4202 21.8381 21.8179 21.9318 22.2838 21.9318C22.6077 21.9318 22.9031 21.8864 23.1702 21.7955C23.4429 21.7045 23.6758 21.5739 23.869 21.4034C24.0622 21.2273 24.2042 21.017 24.2952 20.7727H28.5906C28.4429 21.6818 28.0935 22.4716 27.5423 23.142C26.9912 23.8068 26.2611 24.3239 25.352 24.6932C24.4486 25.0568 23.3917 25.2386 22.1815 25.2386Z" fill="#21201C"/>
<path d="M5.89772 17.6364V25H1.19318V11.9091H5.65909V14.3977H5.79545C6.07954 13.5682 6.57954 12.9176 7.29545 12.446C8.01704 11.9744 8.85795 11.7386 9.81818 11.7386C10.7443 11.7386 11.5483 11.9517 12.2301 12.3778C12.9176 12.7983 13.4489 13.3778 13.8239 14.1165C14.2045 14.8551 14.392 15.6989 14.3864 16.6477V25H9.68181V17.6364C9.68749 16.9886 9.52272 16.4801 9.18749 16.1108C8.85795 15.7415 8.39772 15.5568 7.80681 15.5568C7.42045 15.5568 7.08238 15.642 6.79261 15.8125C6.50852 15.9773 6.28977 16.2159 6.13636 16.5284C5.98295 16.8352 5.9034 17.2045 5.89772 17.6364Z" fill="#21201C"/>
<rect x="133" width="16" height="16" rx="8" fill="#F9F9F8"/>
<path fill-rule="evenodd" clip-rule="evenodd" d="M141 0C145.412 0 149 3.58788 149 8C149 12.4121 145.412 16 141 16C136.588 16 133 12.4121 133 8C133 3.58788 136.588 0 141 0ZM145.881 11.1677C146.059 10.9576 146.382 10.9253 146.592 11.103C146.802 11.2808 146.818 11.604 146.64 11.8141C144.394 14.4485 143.246 12.1051 142.552 9.90707C139.384 15.0303 135.036 12.3475 135.246 7.74141C135.44 3.44242 140.451 -0.0969697 142.794 7.33737C143.392 6.07677 143.909 4.78384 144.442 3.49091C144.539 3.24848 144.83 3.11919 145.089 3.23232C145.347 3.32929 145.461 3.6202 145.364 3.87879C144.685 5.51111 144.038 7.1596 143.214 8.72727C143.683 10.2465 144.135 13.204 145.881 11.1677ZM142.147 8.61414C140.095 1.72929 136.426 3.7495 136.232 7.7899C136.038 11.9758 139.529 13.4788 142.147 8.61414Z" fill="#43C488"/>
</svg>
