<svg width="96" height="32" viewBox="0 0 96 32" fill="none" xmlns="http://www.w3.org/2000/svg">
<path d="M81.8932 29.9091V11.9091H86.5636V14.1932H86.6659C86.8364 13.75 87.0864 13.3438 87.4159 12.9744C87.7455 12.5994 88.1546 12.3011 88.6432 12.0795C89.1318 11.8523 89.7 11.7386 90.3477 11.7386C91.2114 11.7386 92.0324 11.9688 92.8108 12.429C93.5949 12.8892 94.2313 13.6136 94.7199 14.6023C95.2142 15.5909 95.4614 16.875 95.4614 18.4545C95.4614 19.9659 95.2256 21.2188 94.754 22.2131C94.2881 23.2074 93.6631 23.9489 92.879 24.4375C92.1006 24.9261 91.2455 25.1705 90.3136 25.1705C89.7 25.1705 89.1517 25.071 88.6688 24.8722C88.1915 24.6676 87.7824 24.392 87.4415 24.0455C87.1063 23.6932 86.8477 23.2955 86.6659 22.8523H86.5977V29.9091H81.8932ZM86.4955 18.4545C86.4955 19.0909 86.5778 19.642 86.7426 20.108C86.9131 20.5682 87.1517 20.9261 87.4585 21.1818C87.771 21.4318 88.1432 21.5568 88.575 21.5568C89.0068 21.5568 89.3733 21.4347 89.6744 21.1903C89.9813 20.9403 90.2142 20.5852 90.3733 20.125C90.5381 19.6591 90.6205 19.1023 90.6205 18.4545C90.6205 17.8068 90.5381 17.2528 90.3733 16.7926C90.2142 16.3267 89.9813 15.9716 89.6744 15.7273C89.3733 15.4773 89.0068 15.3523 88.575 15.3523C88.1432 15.3523 87.771 15.4773 87.4585 15.7273C87.1517 15.9716 86.9131 16.3267 86.7426 16.7926C86.5778 17.2528 86.4955 17.8068 86.4955 18.4545Z" fill="#82827C"/>
<path d="M72.1612 25.2045C71.326 25.2045 70.5874 25.0682 69.9453 24.7955C69.309 24.517 68.809 24.0966 68.4453 23.5341C68.0817 22.9716 67.8999 22.2557 67.8999 21.3864C67.8999 20.6705 68.022 20.0597 68.2663 19.554C68.5107 19.0426 68.8516 18.625 69.2891 18.3011C69.7266 17.9773 70.2351 17.7301 70.8146 17.5597C71.3999 17.3892 72.0306 17.2784 72.7067 17.2273C73.4396 17.1705 74.0277 17.1023 74.4709 17.0227C74.9198 16.9375 75.2436 16.821 75.4425 16.6733C75.6414 16.5199 75.7408 16.3182 75.7408 16.0682V16.0341C75.7408 15.6932 75.6101 15.4318 75.3487 15.25C75.0874 15.0682 74.7521 14.9773 74.3431 14.9773C73.8942 14.9773 73.5277 15.0767 73.2436 15.2756C72.9652 15.4688 72.7976 15.767 72.7408 16.1705H68.4112C68.4681 15.375 68.7209 14.642 69.1698 13.9716C69.6243 13.2955 70.2862 12.7557 71.1556 12.3523C72.0249 11.9432 73.1101 11.7386 74.4112 11.7386C75.3487 11.7386 76.1896 11.8494 76.934 12.071C77.6783 12.2869 78.3118 12.5909 78.8345 12.983C79.3573 13.3693 79.755 13.8239 80.0277 14.3466C80.3061 14.8636 80.4453 15.4261 80.4453 16.0341V25H76.0476V23.1591H75.9453C75.684 23.6477 75.3658 24.0426 74.9908 24.3438C74.6215 24.6449 74.1982 24.8636 73.7209 25C73.2493 25.1364 72.7294 25.2045 72.1612 25.2045ZM73.6953 22.2386C74.0533 22.2386 74.3885 22.1648 74.701 22.017C75.0192 21.8693 75.2777 21.6563 75.4766 21.3778C75.6754 21.0994 75.7749 20.7614 75.7749 20.3636V19.2727C75.6499 19.3239 75.5164 19.3722 75.3743 19.4176C75.2379 19.4631 75.0902 19.5057 74.9311 19.5455C74.7777 19.5852 74.6129 19.6222 74.4368 19.6563C74.2664 19.6903 74.0874 19.7216 73.8999 19.75C73.5362 19.8068 73.2379 19.9006 73.005 20.0313C72.7777 20.1563 72.6073 20.3125 72.4936 20.5C72.3857 20.6818 72.3317 20.8864 72.3317 21.1136C72.3317 21.4773 72.4595 21.7557 72.7152 21.9489C72.9709 22.142 73.2976 22.2386 73.6953 22.2386Z" fill="#82827C"/>
<path d="M50.6317 25L47.359 11.9091H52.0635L53.5635 19.8864H53.6658L55.3362 11.9091H59.9044L61.6431 19.8182H61.7453L63.1771 11.9091H67.8817L64.609 25H59.5294L57.6885 17.9773H57.5521L55.7112 25H50.6317Z" fill="#82827C"/>
<path d="M46.97 16.1705H42.6405C42.6178 15.9034 42.524 15.6733 42.3592 15.4801C42.1945 15.2869 41.9814 15.1392 41.72 15.0369C41.4644 14.929 41.1803 14.875 40.8678 14.875C40.4644 14.875 40.1178 14.9489 39.828 15.0966C39.5382 15.2443 39.3962 15.4545 39.4019 15.7273C39.3962 15.9205 39.4786 16.0994 39.649 16.2642C39.8252 16.429 40.1632 16.5568 40.6632 16.6477L43.3223 17.125C44.6632 17.3693 45.6604 17.7813 46.3138 18.3608C46.9729 18.9347 47.3053 19.7045 47.311 20.6705C47.3053 21.6023 47.0269 22.4119 46.4757 23.0994C45.9303 23.7813 45.1831 24.3097 44.2342 24.6847C43.2911 25.054 42.2144 25.2386 41.0041 25.2386C39.0041 25.2386 37.4388 24.8295 36.3081 24.0114C35.1831 23.1932 34.5553 22.1136 34.4246 20.7727H39.095C39.1575 21.1875 39.3621 21.5085 39.7087 21.7358C40.061 21.9574 40.5041 22.0682 41.0382 22.0682C41.47 22.0682 41.8252 21.9943 42.1036 21.8466C42.3877 21.6989 42.5325 21.4886 42.5382 21.2159C42.5325 20.9659 42.4075 20.767 42.1632 20.6193C41.9246 20.4716 41.5496 20.3523 41.0382 20.2614L38.72 19.8523C37.3848 19.6193 36.3848 19.1761 35.72 18.5227C35.0553 17.8693 34.7257 17.0284 34.7314 16C34.7257 15.0909 34.9644 14.321 35.4473 13.6903C35.936 13.054 36.632 12.571 37.5354 12.2415C38.4445 11.9063 39.5212 11.7386 40.7655 11.7386C42.6575 11.7386 44.149 12.1307 45.2399 12.9148C46.3365 13.6989 46.9132 14.7841 46.97 16.1705Z" fill="#82827C"/>
<path d="M33.4071 7.54546V25H28.7026V7.54546H33.4071Z" fill="url(#paint0_linear_2002_3297)"/>
<path d="M20.8094 25.2386C19.3889 25.2386 18.173 24.9574 17.1617 24.3949C16.1503 23.8267 15.3747 23.0369 14.835 22.0256C14.2952 21.0085 14.0253 19.8295 14.0253 18.4886C14.0253 17.1477 14.2952 15.9716 14.835 14.9602C15.3747 13.9432 16.1503 13.1534 17.1617 12.5909C18.173 12.0227 19.3889 11.7386 20.8094 11.7386C22.2298 11.7386 23.4458 12.0227 24.4571 12.5909C25.4685 13.1534 26.2441 13.9432 26.7838 14.9602C27.3236 15.9716 27.5935 17.1477 27.5935 18.4886C27.5935 19.8295 27.3236 21.0085 26.7838 22.0256C26.2441 23.0369 25.4685 23.8267 24.4571 24.3949C23.4458 24.9574 22.2298 25.2386 20.8094 25.2386ZM20.8435 21.7614C21.2412 21.7614 21.585 21.6278 21.8747 21.3608C22.1645 21.0938 22.3889 20.7131 22.548 20.2188C22.7071 19.7244 22.7867 19.1364 22.7867 18.4545C22.7867 17.767 22.7071 17.179 22.548 16.6903C22.3889 16.196 22.1645 15.8153 21.8747 15.5483C21.585 15.2813 21.2412 15.1477 20.8435 15.1477C20.423 15.1477 20.0622 15.2813 19.7611 15.5483C19.46 15.8153 19.2298 16.196 19.0708 16.6903C18.9117 17.179 18.8321 17.767 18.8321 18.4545C18.8321 19.1364 18.9117 19.7244 19.0708 20.2188C19.2298 20.7131 19.46 21.0938 19.7611 21.3608C20.0622 21.6278 20.423 21.7614 20.8435 21.7614Z" fill="url(#paint1_linear_2002_3297)"/>
<path d="M13.1591 16.1705H8.82956C8.80683 15.9034 8.71308 15.6733 8.54831 15.4801C8.38353 15.2869 8.17047 15.1392 7.9091 15.0369C7.65342 14.929 7.36933 14.875 7.05683 14.875C6.65342 14.875 6.30683 14.9489 6.01706 15.0966C5.72728 15.2443 5.58524 15.4545 5.59092 15.7273C5.58524 15.9205 5.66762 16.0994 5.83808 16.2642C6.01422 16.429 6.35228 16.5568 6.85228 16.6477L9.51138 17.125C10.8523 17.3693 11.8494 17.7813 12.5029 18.3608C13.1619 18.9347 13.4943 19.7045 13.5 20.6705C13.4943 21.6023 13.2159 22.4119 12.6648 23.0994C12.1193 23.7813 11.3722 24.3097 10.4233 24.6847C9.48013 25.054 8.40342 25.2386 7.19319 25.2386C5.19319 25.2386 3.62785 24.8295 2.49717 24.0114C1.37217 23.1932 0.744329 22.1136 0.613647 20.7727H5.2841C5.3466 21.1875 5.55115 21.5085 5.89774 21.7358C6.25001 21.9574 6.69319 22.0682 7.22728 22.0682C7.6591 22.0682 8.01422 21.9943 8.29262 21.8466C8.57672 21.6989 8.7216 21.4886 8.72728 21.2159C8.7216 20.9659 8.5966 20.767 8.35228 20.6193C8.11365 20.4716 7.73865 20.3523 7.22728 20.2614L4.9091 19.8523C3.57387 19.6193 2.57387 19.1761 1.9091 18.5227C1.24433 17.8693 0.914784 17.0284 0.920466 16C0.914784 15.0909 1.15342 14.321 1.63637 13.6903C2.12501 13.054 2.82103 12.571 3.72444 12.2415C4.63353 11.9063 5.71024 11.7386 6.95456 11.7386C8.8466 11.7386 10.3381 12.1307 11.429 12.9148C12.5256 13.6989 13.1023 14.7841 13.1591 16.1705Z" fill="url(#paint2_linear_2002_3297)"/>
<defs>
<linearGradient id="paint0_linear_2002_3297" x1="1.95262e-05" y1="16" x2="48" y2="16" gradientUnits="userSpaceOnUse">
<stop stop-color="#9945FF"/>
<stop offset="1" stop-color="#82827C"/>
</linearGradient>
<linearGradient id="paint1_linear_2002_3297" x1="1.52588e-05" y1="16" x2="48" y2="16" gradientUnits="userSpaceOnUse">
<stop stop-color="#9945FF"/>
<stop offset="1" stop-color="#82827C"/>
</linearGradient>
<linearGradient id="paint2_linear_2002_3297" x1="1.10787e-05" y1="16" x2="48" y2="16" gradientUnits="userSpaceOnUse">
<stop stop-color="#9945FF"/>
<stop offset="1" stop-color="#82827C"/>
</linearGradient>
</defs>
</svg>
