<svg fill="none" height="64" viewBox="0 0 64 64" width="64" xmlns="http://www.w3.org/2000/svg" xmlns:xlink="http://www.w3.org/1999/xlink"><clipPath id="a"><path d="m0 0h64v64h-64z"/></clipPath><g clip-path="url(#a)"><path d="m31.9723 63.9032c17.6502 0 31.9585-14.2773 31.9585-31.8894 0-17.612-14.3083-31.88938-31.9585-31.88938-17.6501 0-31.958384 14.27738-31.958384 31.88938 0 17.6121 14.308284 31.8894 31.958384 31.8894z" fill="#f3ba2f"/><path clip-rule="evenodd" d="m40.2609 35.405 4.8208 4.7965-13.1047 13.0627-13.091-13.0627 4.8208-4.7965 8.2702 8.2523zm-8.2839-8.2661 4.89 4.8795-4.89 4.8795-4.8762-4.8657v-.0138l.8588-.857.4156-.4147zm-16.4849.0691 4.8208 4.8104-4.8208 4.7965-4.8207-4.8103zm32.9697 0 4.8208 4.8104-4.8208 4.7965-4.8208-4.8103zm-16.4848-16.4492 13.0909 13.0626-4.8208 4.8104-8.2701-8.2661-8.2702 8.2522-4.8208-4.7965z" fill="#131415" fill-rule="evenodd"/></g></svg>