<svg fill="none" height="64" viewBox="0 0 64 64" width="64" xmlns="http://www.w3.org/2000/svg" xmlns:xlink="http://www.w3.org/1999/xlink"><clipPath id="a"><path d="m0 4h64v56h-64z"/></clipPath><g clip-path="url(#a)"><path d="m48.3333 21.0507c-1.1666-.6686-2.6666-.6686-4 0l-9.3333 5.5165-6.3333 3.5104-9.1667 5.5164c-1.1667.6687-2.6667.6687-4 0l-7.16667-4.3462c-1.16666-.6687-2-2.006-2-3.5105v-8.3582c0-1.3373.66667-2.6746 2-3.5105l7.16667-4.1791c1.1667-.6686 2.6667-.6686 4 0l7.1667 4.3463c1.1666.6687 2 2.006 2 3.5105v5.5164l6.3333-3.6776v-5.6836c0-1.3373-.6667-2.6746-2-3.5105l-13.3333-7.85668c-1.1667-.66866-2.6667-.66866-4 0l-13.6667 8.02388c-1.333333.6687-2 2.006-2 3.3433v15.7134c0 1.3373.666667 2.6746 2 3.5105l13.5 7.8567c1.1667.6686 2.6667.6686 4 0l9.1667-5.3493 6.3333-3.6776 9.1667-5.3492c1.1666-.6687 2.6666-.6687 4 0l7.1666 4.1791c1.1667.6686 2 2.0059 2 3.5104v8.3582c0 1.3373-.6666 2.6746-2 3.5105l-7 4.1791c-1.1666.6686-2.6666.6686-4 0l-7.1666-4.1791c-1.1667-.6687-2-2.006-2-3.5105v-5.3492l-6.3334 3.6776v5.5164c0 1.3373.6667 2.6746 2 3.5104l13.5 7.8568c1.1667.6686 2.6667.6686 4 0l13.5-7.8568c1.1667-.6686 2-2.0059 2-3.5104v-15.8806c0-1.3373-.6666-2.6746-2-3.5104z" fill="#8247e5"/></g></svg>