<svg viewBox="0 0 64 64" xmlns="http://www.w3.org/2000/svg"><path d="m61.55 19.28c-3-2.77-7.15-7-10.53-10l-.2-.14a3.82 3.82 0 0 0 -1.11-.62c-8.15-1.52-46.08-8.61-46.82-8.52a1.4 1.4 0 0 0 -.58.22l-.19.15a2.23 2.23 0 0 0 -.52.84l-.05.13v.71.11c4.27 11.89 21.13 50.84 24.45 59.98.2.62.58 1.8 1.29 1.86h.16c.38 0 2-2.14 2-2.14s28.96-35.12 31.89-38.86a9.46 9.46 0 0 0 1-1.48 2.41 2.41 0 0 0 -.79-2.24zm-24.67 4.09 12.36-10.25 7.25 6.68zm-4.8-.67-21.28-17.44 34.43 6.35zm1.92 4.57 21.78-3.51-24.9 30zm-26.09-20.27 22.39 19-3.24 27.78z" fill="#ff060a"/></svg>