<svg width="20" height="20" viewBox="0 0 20 20" fill="none" xmlns="http://www.w3.org/2000/svg">
<path d="M10 3.96351C10.6038 3.96351 11.1464 4.29892 11.4164 4.83878L15.8695 13.7449C16.1166 14.2392 16.0907 14.815 15.8004 15.2854C15.5097 15.7558 15.0062 16.0365 14.4535 16.0365H5.5469C4.99425 16.0365 4.49072 15.7558 4.20002 15.2854C3.90932 14.815 3.88337 14.2392 4.13054 13.7449L8.58365 4.83878C8.85358 4.29892 9.39624 3.96351 10 3.96351ZM10 2.875C8.98775 2.875 8.06295 3.44681 7.61013 4.35203L3.15702 13.2581C2.74294 14.0863 2.78726 15.0702 3.27402 15.8576C3.76078 16.6454 4.6209 17.125 5.5469 17.125H14.4531C15.3791 17.125 16.2392 16.6454 16.726 15.8576C17.2127 15.0698 17.2571 14.0863 16.843 13.2581L12.3899 4.35203C11.9375 3.44681 11.0123 2.875 10 2.875Z" fill="#21201C" stroke="#21201C" stroke-width="0.5"/>
</svg>
